<?xml version="1.0" standalone="no"?>
<!DOCTYPE svg PUBLIC "-//W3C//DTD SVG 20010904//EN"
 "http://www.w3.org/TR/2001/REC-SVG-20010904/DTD/svg10.dtd">
<svg version="1.0" xmlns="http://www.w3.org/2000/svg"
 width="896.000000pt" height="896.000000pt" viewBox="0 0 896.000000 896.000000"
 preserveAspectRatio="xMidYMid meet">
<metadata>
Created by potrace 1.14, written by Peter Selinger 2001-2017
</metadata>
<g transform="translate(0.000000,896.000000) scale(0.100000,-0.100000)"
fill="#000000" stroke="none">
<path d="M3354 5110 l0 -2570 40 -1 c51 -1 512 -1 546 0 l25 1 0 2155 c0 1214
4 2154 8 2152 5 -1 20 -30 34 -62 13 -33 30 -73 38 -90 7 -16 22 -50 33 -75
11 -25 32 -74 47 -110 15 -36 35 -83 45 -105 64 -146 95 -220 92 -222 -2 -2 4
-16 13 -31 15 -26 134 -297 139 -317 1 -5 9 -26 18 -45 8 -19 28 -64 43 -100
15 -36 38 -89 51 -118 13 -29 24 -55 24 -57 0 -4 24 -59 66 -152 8 -17 14 -34
14 -38 0 -3 13 -34 29 -68 15 -34 41 -91 56 -127 44 -104 54 -128 69 -162 8
-18 40 -94 71 -168 31 -74 66 -155 77 -180 12 -25 38 -87 60 -139 22 -51 48
-114 60 -140 51 -114 58 -131 58 -136 0 -3 9 -24 20 -48 10 -23 67 -154 125
-292 59 -137 114 -266 122 -285 8 -19 21 -48 28 -65 7 -16 21 -48 31 -70 9
-22 18 -42 18 -45 1 -5 152 -359 181 -425 8 -17 50 -114 93 -217 44 -102 84
-194 90 -203 8 -16 27 -18 178 -17 93 0 176 1 184 1 8 1 26 27 39 59 23 54 48
111 76 177 62 142 327 762 329 770 1 6 8 21 14 35 52 113 102 235 102 246 0 8
5 14 10 14 6 0 10 6 10 13 0 9 217 527 295 702 7 17 61 143 120 280 59 138
115 269 126 293 11 24 33 77 49 118 16 40 34 82 40 91 17 31 150 351 150 362
0 5 4 11 10 13 5 2 11 12 13 23 2 11 14 42 25 68 12 27 22 50 22 53 0 2 11 27
24 56 14 29 52 116 84 193 33 77 68 158 78 180 9 22 18 42 19 45 1 3 9 22 18
44 9 21 17 40 17 42 0 2 11 27 24 56 13 29 52 118 85 198 69 164 75 176 85
173 4 -2 8 -972 8 -2155 l0 -2153 299 1 c165 1 302 4 305 7 5 4 9 5003 5 5120
-1 16 -29 17 -445 17 l-445 0 -7 -22 c-4 -13 -18 -48 -31 -78 -14 -30 -31 -71
-40 -90 -8 -19 -21 -48 -29 -65 -7 -16 -34 -77 -59 -135 -26 -58 -48 -109 -49
-115 -1 -5 -13 -32 -26 -60 -13 -27 -25 -52 -25 -55 -2 -8 -22 -54 -45 -108
-12 -26 -27 -60 -35 -77 -7 -16 -22 -51 -34 -77 -12 -26 -21 -49 -21 -52 0 -2
-16 -39 -35 -80 -19 -42 -35 -81 -35 -86 0 -6 -4 -10 -8 -10 -4 0 -9 -10 -9
-22 -1 -13 -7 -24 -13 -26 -5 -2 -10 -10 -10 -19 0 -8 -6 -27 -14 -41 -8 -15
-22 -45 -31 -67 -18 -45 -23 -56 -61 -140 -14 -33 -53 -123 -86 -200 -34 -77
-71 -162 -83 -190 -73 -163 -119 -270 -114 -270 2 0 -4 -13 -13 -30 -8 -16
-22 -43 -29 -60 -8 -16 -18 -33 -24 -37 -5 -4 -7 -8 -3 -8 4 0 -11 -38 -32
-85 -22 -47 -40 -89 -41 -93 -1 -4 -9 -25 -19 -47 -26 -58 -33 -79 -32 -87 1
-5 -2 -8 -6 -8 -6 0 -34 -60 -37 -80 0 -3 -12 -30 -26 -60 -15 -30 -38 -82
-53 -116 -14 -33 -38 -87 -53 -120 -14 -32 -27 -63 -29 -69 -2 -9 -57 -136
-103 -239 -70 -156 -151 -346 -151 -355 0 -6 -5 -11 -12 -11 -6 0 -8 -3 -5 -6
4 -4 -1 -21 -10 -38 -30 -58 -41 -81 -43 -88 -5 -29 -129 -303 -138 -306 -5
-1 -31 48 -57 110 -26 62 -55 131 -65 153 -61 135 -100 229 -100 241 0 8 -4
14 -8 14 -4 0 -14 17 -21 38 -7 20 -21 55 -31 77 -16 33 -109 248 -342 790
-17 39 -37 86 -45 105 -9 19 -23 53 -33 75 -10 22 -27 61 -39 87 -11 26 -21
50 -21 53 0 2 -11 28 -24 57 -13 29 -34 76 -46 103 -12 28 -27 64 -35 80 -7
17 -47 111 -90 210 -43 99 -85 198 -95 220 -16 36 -57 132 -97 225 -8 19 -21
49 -29 65 -45 100 -74 167 -74 171 0 5 -10 27 -66 152 -13 29 -24 55 -24 57 0
2 -11 28 -24 57 -40 89 -76 172 -81 188 -1 3 -13 31 -28 64 -15 32 -27 60 -27
62 0 2 -11 27 -24 56 -35 77 -59 132 -60 138 -1 4 -26 62 -106 245 -10 22 -27
61 -38 88 l-21 47 -453 0 -454 0 0 -2570z"/>
<path d="M0 5000 l0 -2570 670 0 c863 -1 2186 -1 2248 0 l47 0 -1 275 c0 151
-4 278 -8 282 -4 5 -533 8 -1174 8 l-1167 0 -3 2288 -2 2287 -305 0 -305 0 0
-2570z"/>
<path d="M367 1843 c-4 -3 -88 -6 -187 -6 l-180 0 0 -283 0 -284 4480 0 4480
0 -2 283 -3 282 -410 2 c-225 2 -428 3 -450 2 -22 0 -73 -1 -113 -2 -41 -1
-76 1 -79 6 -2 4 -9 4 -15 1 -6 -4 -61 -6 -122 -6 -113 2 -135 2 -264 -1 -41
-1 -76 1 -79 6 -2 4 -9 4 -15 1 -6 -4 -277 -6 -602 -5 -325 0 -609 1 -631 0
-22 0 -73 -1 -113 -2 -41 -1 -76 1 -79 6 -2 4 -9 4 -15 1 -6 -4 -61 -6 -122
-6 -113 2 -135 2 -264 -1 -41 -1 -76 1 -79 6 -2 4 -9 4 -15 1 -6 -4 -133 -6
-282 -6 -149 1 -289 2 -311 1 -22 0 -73 -1 -113 -2 -41 -1 -76 1 -79 6 -2 4
-9 4 -15 1 -6 -4 -61 -6 -122 -6 -113 2 -135 2 -264 -1 -41 -1 -76 1 -79 6 -2
4 -9 4 -15 1 -6 -4 -277 -6 -602 -5 -325 0 -609 1 -631 0 -22 0 -73 -1 -113
-2 -41 -1 -76 1 -79 6 -2 4 -9 4 -15 1 -6 -4 -61 -6 -122 -6 -113 2 -135 2
-264 -1 -41 -1 -76 1 -79 6 -2 4 -9 4 -15 1 -6 -4 -277 -6 -602 -5 -325 0
-609 1 -631 0 -22 0 -73 -1 -113 -2 -41 -1 -76 1 -79 6 -2 4 -9 4 -15 1 -6 -4
-61 -6 -122 -6 -111 2 -132 2 -261 -2 -38 -1 -75 2 -81 6 -6 4 -14 5 -17 1z"/>
</g>
</svg>
